<?xml version="1.0" encoding="UTF-8"?>
<svg width="250px" height="56px" viewBox="0 0 250 56" version="1.1" xmlns="http://www.w3.org/2000/svg" xmlns:xlink="http://www.w3.org/1999/xlink">
    <!-- Generator: Sketch 54 (76480) - https://sketchapp.com -->
    <title>Logo/DarkBG</title>
    <desc>Created with Sketch.</desc>
    <g id="Style-Tile" stroke="none" stroke-width="1" fill="none" fill-rule="evenodd">
        <g id="Artboard" transform="translate(-1277.000000, -739.000000)" fill="#FFFFFF">
            <g id="Logo/DarkBG/Campervan" transform="translate(1277.000000, 739.000000)">
                <g id="Logo-Copy-2" stroke-width="1" fill-rule="evenodd">
                    <path d="M60.1124308,30.6486486 C56.4131858,38.2162541 51.1306311,44.33331 44.2646082,49 C37.3985852,53.66669 29.5938558,56 20.8501858,56 C6.94999243,56 0,50.4757309 0,39.427027 C0,34.4324075 1.16300277,29.5261502 3.48904319,24.7081081 C5.81508361,19.890066 8.88372946,15.6774955 12.6950728,12.0702703 C16.5064161,8.46304503 21.0183064,5.54956065 26.2308789,3.32972973 C31.4434514,1.10989881 36.7680424,0 42.2048116,0 C49.3230558,0 54.6616588,1.57656081 58.2207809,4.72972973 C61.779903,7.88289865 63.2692375,12.5588883 63.5594373,16.5351351 C63.8496372,20.511382 62.4104467,25.9567333 60.1124308,30.6486486 Z M54.8245614,15.7877785 C54.8245614,7.6711544 50.793616,3.61290323 42.7316042,3.61290323 C36.8783628,3.61290323 31.2874967,5.43040222 25.9588382,9.06545473 C20.6301797,12.7005072 16.433579,17.2567033 13.3689101,22.7341797 C10.3042413,28.2116561 8.77192982,33.6890503 8.77192982,39.1665267 C8.77192982,43.1003506 9.73825236,46.2871982 11.6709264,48.7271649 C13.6036005,51.1671317 16.682028,52.3870968 20.9063013,52.3870968 C25.1305746,52.3870968 29.3685891,51.2418234 33.620472,48.9512424 C37.872355,46.6606614 41.5167714,43.7352349 44.5538306,40.1748753 C47.5908899,36.6145156 50.0619146,32.6558534 51.966979,28.2987699 C53.8720435,23.9416865 54.8245614,19.7713977 54.8245614,15.7877785 Z M102.378511,22.5081234 C100.672398,24.5065113 99.1161686,26.1744956 97.7097777,27.5121262 C96.3033867,28.8497568 94.7010473,30.0181516 92.9027113,31.0173456 C91.1043753,32.0165395 89.467453,32.516129 87.9918953,32.516129 C85.2713358,32.516129 83.9110764,31.4686027 83.9110764,29.3735186 C83.9110764,27.2784344 85.6402197,23.0722133 89.0985581,16.7547288 C89.2830028,16.4646403 89.3752238,16.1584402 89.3752238,15.8361196 C89.3752238,15.1592463 88.7642598,14.8208147 87.5423136,14.8208147 C86.3203673,14.8208147 85.1214947,15.0867252 83.9456596,15.6185543 C82.7698245,16.1503833 81.6977557,16.9078254 80.729421,17.8909034 C79.7610862,18.8739813 78.8849869,19.8731603 78.1010969,20.8884703 C77.3172069,21.9037803 76.5909667,23.0721751 75.9223546,24.3936897 C75.2537425,25.7152043 74.7234719,26.8191359 74.3315269,27.7055176 C73.9395818,28.5918994 73.5476427,29.542731 73.1556977,30.558041 C72.7637527,31.573351 72.5447279,32.1293457 72.4986167,32.2260419 L65.7894737,32.2260419 C65.7894737,31.5491686 67.8183351,27.6652632 71.8761189,20.5742092 C73.5361213,17.2543067 74.3661101,14.933633 74.3661101,13.6121184 C74.3661101,13.2897977 74.2969443,13.0480609 74.1586108,12.8869006 L77.0636006,12.8869006 C78.6774918,12.8869006 79.7149778,12.9997111 80.1760896,13.2253355 C80.6372014,13.45096 80.8677538,13.75716 80.8677538,14.1439447 C80.8677538,14.5307295 80.6141461,15.3204032 80.1069232,16.5129896 C83.9802622,13.9344245 87.8765984,12.6451613 91.7960486,12.6451613 C94.4243858,12.6451613 95.7385346,13.4831824 95.7385346,15.1592497 C95.7385346,15.7071947 95.6232584,16.2551316 95.3927025,16.8030767 C95.1621466,17.3510218 94.5857656,18.4468955 93.663542,20.0907307 C91.6346501,23.7007218 90.6202194,26.1180903 90.6202194,27.3429087 C90.6202194,28.1164782 91.0352138,28.5032572 91.865215,28.5032572 C92.4646603,28.5032572 93.3061767,28.213173 94.3897894,27.6329958 C95.4734021,27.0528187 96.3725566,26.4484766 97.0872799,25.8199513 C97.8020032,25.1914261 98.5858814,24.4017524 99.4389383,23.4509065 C100.291995,22.5000607 101.018235,21.6700975 101.617681,20.9609921 C102.217126,20.2518867 102.562955,19.8973393 102.655177,19.8973393 C102.931844,19.8973393 103.070175,20.1954814 103.070175,20.7917746 C103.070175,21.3880678 102.839623,21.9601783 102.378511,22.5081234 Z M140.350877,0 C138.751102,0.788273736 136.654458,2.9970493 134.060883,6.62639296 C131.467308,10.2557366 129.176755,14.0820913 127.189155,18.1055718 C125.201556,22.1290524 124.207771,25.0439792 124.207771,26.8504399 C124.207771,27.9014715 124.619828,28.4269795 125.443955,28.4269795 C126.268081,28.4269795 127.298224,28.0656928 128.534414,27.3431085 C129.770604,26.6205242 130.655315,26.0129057 131.188574,25.5202346 C131.721832,25.0275635 132.436872,24.2803569 133.333716,23.2785924 C134.23056,22.2768278 135.006197,21.4064553 135.66065,20.6674487 C136.315104,19.9284421 136.690803,19.5589443 136.787759,19.5589443 C137.127105,19.5589443 137.296776,19.8709646 137.296776,20.4950147 C137.248298,21.6445805 135.236489,24.0422105 131.26129,27.6879765 C129.952383,28.8703871 128.376871,29.9706694 126.534705,30.9888563 C124.692539,32.0070432 123.020072,32.516129 121.517253,32.516129 C118.947917,32.516129 117.663268,31.2187813 117.663268,28.6240469 C117.663268,26.7190521 118.366189,24.2721557 119.772052,21.2832845 C117.542062,24.2721557 114.997004,26.8668512 112.136799,29.0674487 C109.276595,31.2680462 106.416433,32.3683284 103.556229,32.3683284 C100.3082,32.3683284 98.6842105,30.8574931 98.6842105,27.8357771 C98.6842105,25.5366454 99.4234895,23.2047039 100.90207,20.8398827 C102.38065,18.4750615 104.501532,16.4633514 107.264781,14.8046921 C110.028029,13.1460328 113.021503,12.3167155 116.245293,12.3167155 C119.469082,12.3167155 121.686919,13.039289 122.89887,14.4844575 C124.256255,12.6779968 125.649978,10.5923872 127.08008,8.22756598 C128.510182,5.86274477 129.45549,4.32727626 129.916031,3.62111437 C130.376573,2.91495248 130.715914,2.3976556 130.934065,2.06920821 C131.152216,1.74076082 131.430961,1.42874048 131.770307,1.13313783 C132.303566,0.673311484 132.94589,0.385924328 133.6973,0.270967742 C134.448709,0.156011155 135.660642,0.0903226628 137.333134,0.0739002933 C139.005627,0.0574779238 140.011531,0.032844739 140.350877,0 Z M122.807018,15.361155 C122.199435,14.7547906 121.186812,14.4516129 119.76912,14.4516129 C117.490685,14.4516129 115.199627,15.2179787 112.895876,16.7507331 C110.592125,18.2834876 108.744089,20.052024 107.351713,22.0563952 C105.959336,24.0607665 105.263158,25.8208812 105.263158,27.3367922 C105.263158,28.3810865 105.870731,28.9032258 107.085897,28.9032258 C111.187079,28.9032258 116.4274,24.3892473 122.807018,15.361155 Z M160.496826,19.3662239 C160.762747,19.3662239 162.280702,19.6827925 162.280702,20.3159393 C162.280702,20.949086 161.926146,21.7039804 161.217024,22.5806452 C160.507902,23.4573099 159.725504,24.0828557 158.261087,25.3893081 C157.284808,26.2602764 156.257259,27.1197916 155.178439,27.9678537 C153.523833,29.095193 152.327196,29.8645 151.588527,30.2757748 C148.79636,31.7693518 145.993155,32.516129 143.178827,32.516129 C140.3645,32.516129 138.093128,31.9885147 136.364644,30.9332701 C134.636159,29.8780255 133.77193,28.2627138 133.77193,26.0872865 C133.77193,22.775442 135.433909,19.7071615 138.757918,16.8823529 C142.081927,14.0575444 145.959879,12.6451613 150.39189,12.6451613 C152.386295,12.6451613 153.981796,13.0266671 155.178439,13.7896901 C156.375082,14.5527131 156.973394,15.4699504 156.973394,16.5414295 C156.973394,18.3596971 155.798929,19.820783 153.449963,20.9247312 C151.100997,22.0286794 148.331031,22.5806452 145.139983,22.5806452 C143.278538,22.5806452 141.904635,22.402068 141.018233,22.0449083 C140.17615,23.7008305 139.755116,25.1619165 139.755116,26.42821 C139.755116,29.1556114 141.328456,30.5192916 144.475184,30.5192916 C146.336629,30.5192916 148.253445,29.9916772 150.225691,28.9364326 C151.540521,28.2329363 153.326306,27.1305771 155.583046,25.6293552 C158.290121,23.3263159 160.234594,21.3522466 161.416464,19.7071474 C161.593744,19.4798639 160.363866,19.3662239 160.496826,19.3662239 Z M153.508772,15.8868758 C153.508772,14.9300291 152.88093,14.4516129 151.625229,14.4516129 C149.876216,14.4516129 147.925422,15.2434742 145.772791,16.8272205 C143.620159,18.4109668 142.54386,19.6977414 142.54386,20.6875829 C142.54386,21.3474772 143.39593,21.6774194 145.100097,21.6774194 C146.804264,21.6774194 148.586885,21.0670263 150.448014,19.8462218 C152.309144,18.6254174 153.329386,17.3056486 153.508772,15.8868758 Z M190.284511,19.5198359 C187.343773,21.9795291 184.533393,23.7071265 182.782202,23.9363446 C181.431192,24.1131819 179.536011,24.0786603 177.588296,23.3822857 C173.404296,27.6253334 170.47073,30.1354958 168.787512,30.912848 C166.431005,31.9817074 164.122626,32.516129 161.862304,32.516129 C160.708097,32.516129 159.758295,32.135556 159.012869,31.3743986 C158.267444,30.6132412 157.894737,29.5767871 157.894737,28.2650051 C157.894737,26.9532232 158.495877,24.9855798 159.698176,22.3620159 C162.054682,17.2120572 164.771837,14.1998624 167.849723,13.3253411 C169.340574,12.9042753 171.360406,12.6937456 173.90928,12.6937456 C174.101648,12.6937456 174.19783,12.7585239 174.19783,12.8880827 C174.19783,13.0176414 174.053556,13.1795873 173.765005,13.3739254 C171.93751,14.4103951 169.953746,16.6209574 167.813654,20.0056787 C165.673562,23.3904 164.603532,25.7872001 164.603532,27.1961511 C164.603532,28.6051021 165.397037,29.309567 166.984072,29.309567 C168.330647,29.309567 169.893612,28.4107669 171.673015,26.6131398 C173.452417,24.8155127 174.943246,22.8316748 176.145545,20.6615664 C175.905085,19.9166038 175.784857,18.9692199 175.784857,17.8193864 C175.784857,16.6695528 176.205655,15.5197365 177.047265,14.369903 C177.888874,13.2200694 179.055086,12.6451613 180.545937,12.6451613 C182.036788,12.6451613 182.782202,13.3901127 182.782202,14.8800379 C182.782202,16.6290804 181.988697,18.410486 180.401662,20.2243079 C179.968834,20.7425427 179.95681,21.0502378 180.654144,21.6008623 C181.351477,22.1514868 182.253188,22.426795 183.359303,22.426795 C185.090613,22.426795 186.70167,20.6858658 188.192521,19.2283303 C188.769624,18.6453161 189.286605,18.1189918 189.743479,17.6493414 C190.200352,17.1796911 190.452831,16.9448695 190.500923,16.9448695 C190.693291,16.9448695 190.789474,17.284956 190.789474,17.9651392 C190.789474,18.6453224 190.621154,19.1635495 190.284511,19.5198359 Z M211.516695,12.8390244 L215.053763,12.8874902 L215.761177,12.8874902 C214.204859,13.7598785 212.294861,15.9650492 210.031126,19.5030685 C207.767391,23.0410877 206.63554,25.6178256 206.63554,27.2333596 C206.63554,28.0734372 207.059984,28.4934697 207.908885,28.4934697 C210.644232,28.4934697 214.134104,25.7309482 218.378608,20.2058222 C218.567252,19.9796474 218.732314,19.8665618 218.873797,19.8665618 C219.156764,19.8665618 219.298246,20.1654311 219.298246,20.7631786 C219.298246,21.3609261 219.062443,21.9344321 218.590832,22.4837136 C212.790011,29.172024 207.932485,32.516129 204.01811,32.516129 C201.471408,32.516129 200.198076,31.175256 200.198076,28.4934697 C200.198076,26.4902077 200.69326,24.5192859 201.683645,22.5806452 C196.307274,29.1074022 191.331847,32.3707317 186.757216,32.3707317 C183.597419,32.3707317 182.017544,30.8844628 182.017544,27.9118804 C182.017544,25.6501329 182.736741,23.3561092 184.175156,21.0297404 C185.613571,18.7033715 187.67684,16.7243722 190.365025,15.0926829 C193.053211,13.4609937 196.000739,12.6451613 199.207697,12.6451613 C200.716853,12.6451613 202.131667,12.8794102 203.452179,13.347915 C204.772691,13.8164199 205.645159,14.5676319 206.06961,15.6015736 C206.588382,14.858428 207.39011,14.2122241 208.474816,13.6629426 C209.559522,13.113661 210.573472,12.8390244 211.516695,12.8390244 Z M206.140351,16.0685766 C205.64685,14.9905954 204.487141,14.4516129 202.661189,14.4516129 C199.404085,14.4516129 196.245728,15.992766 193.186024,19.0751184 C190.12632,22.1574709 188.596491,24.9113346 188.596491,27.3367922 C188.596491,28.3810865 189.188683,28.9032258 190.373085,28.9032258 C191.656186,28.9032258 193.161341,28.3558217 194.888593,27.2609971 C196.615845,26.1661724 198.170349,24.8776674 199.55215,23.3954433 C202.611854,20.0941259 204.807899,17.6518614 206.140351,16.0685766 Z M249.308336,22.5081234 C247.602222,24.5065113 246.045993,26.1744956 244.639602,27.5121262 C243.233211,28.8497568 241.630872,30.0181516 239.832536,31.0173456 C238.0342,32.0165395 236.397278,32.516129 234.92172,32.516129 C232.20116,32.516129 230.840901,31.4686027 230.840901,29.3735186 C230.840901,27.2784344 232.570044,23.0722133 236.028383,16.7547288 C236.212827,16.4646403 236.305048,16.1584402 236.305048,15.8361196 C236.305048,15.1592463 235.694084,14.8208147 234.472138,14.8208147 C233.250192,14.8208147 232.051319,15.0867252 230.875484,15.6185543 C229.699649,16.1503833 228.62758,16.9078254 227.659246,17.8909034 C226.690911,18.8739813 225.814812,19.8731603 225.030921,20.8884703 C224.247031,21.9037803 223.520791,23.0721751 222.852179,24.3936897 C222.183567,25.7152043 221.653296,26.8191359 221.261351,27.7055176 C220.869406,28.5918994 220.477467,29.542731 220.085522,30.558041 C219.693577,31.573351 219.474552,32.1293457 219.428441,32.2260419 L212.719298,32.2260419 C212.719298,31.5491686 214.74816,27.6652632 218.805943,20.5742092 C220.465946,17.2543067 221.295935,14.933633 221.295935,13.6121184 C221.295935,13.2897977 221.226769,13.0480609 221.088435,12.8869006 L223.993425,12.8869006 C225.607316,12.8869006 226.644802,12.9997111 227.105914,13.2253355 C227.567026,13.45096 227.797578,13.75716 227.797578,14.1439447 C227.797578,14.5307295 227.543971,15.3204032 227.036748,16.5129896 C230.910087,13.9344245 234.806423,12.6451613 238.725873,12.6451613 C241.35421,12.6451613 242.668359,13.4831824 242.668359,15.1592497 C242.668359,15.7071947 242.553083,16.2551316 242.322527,16.8030767 C242.091971,17.3510218 241.51559,18.4468955 240.593367,20.0907307 C238.564475,23.7007218 237.550044,26.1180903 237.550044,27.3429087 C237.550044,28.1164782 237.965038,28.5032572 238.79504,28.5032572 C239.394485,28.5032572 240.236001,28.213173 241.319614,27.6329958 C242.403227,27.0528187 243.302381,26.4484766 244.017104,25.8199513 C244.731828,25.1914261 245.515706,24.4017524 246.368763,23.4509065 C247.22182,22.5000607 247.94806,21.6700975 248.547505,20.9609921 C249.14695,20.2518867 249.492779,19.8973393 249.585001,19.8973393 C249.861669,19.8973393 250,20.1954814 250,20.7917746 C250,21.3880678 249.769448,21.9601783 249.308336,22.5081234 Z" id="Ondevan" fill-rule="nonzero"></path>
                </g>
                <path d="M70.5044484,50.5806452 C68.7915101,50.5806452 67.2426849,50.271256 65.8579264,49.6524684 C64.4731679,49.0336807 63.384588,48.1753753 62.5921539,47.0775263 C61.7997199,45.9796773 61.4035088,44.7387938 61.4035088,43.3548387 C61.4035088,41.9708836 61.7997199,40.7300001 62.5921539,39.6321511 C63.384588,38.5343021 64.4731679,37.6759967 65.8579264,37.0572091 C67.2426849,36.4384214 68.7995144,36.1290323 70.5284614,36.1290323 C71.9852594,36.1290323 73.3019608,36.3419452 74.4786053,36.7677776 C75.6552499,37.1936099 76.6437765,37.8057347 77.4442149,38.6041704 L74.9468595,40.5204063 C73.8102369,39.429211 72.4014864,38.8836215 70.7205657,38.8836215 C69.6799957,38.8836215 68.751501,39.0732471 67.9350538,39.452504 C67.1186066,39.8317609 66.4822676,40.3607166 66.0260177,41.0393869 C65.5697677,41.7180572 65.3416462,42.4898668 65.3416462,43.3548387 C65.3416462,44.2198107 65.5697677,44.9916202 66.0260177,45.6702905 C66.4822676,46.3489608 67.1186066,46.8779165 67.9350538,47.2571734 C68.751501,47.6364303 69.6799957,47.826056 70.7205657,47.826056 C72.4014864,47.826056 73.8102369,47.2738129 74.9468595,46.1693103 L77.4442149,48.0855462 C76.6437765,48.8972892 75.6512477,49.5160675 74.4665988,49.9418998 C73.2819499,50.3677322 71.9612463,50.5806452 70.5044484,50.5806452 Z M91.7079566,47.346997 L83.9037208,47.346997 L82.4149128,50.3411157 L78.4287493,50.3411157 L85.9208156,36.3685618 L89.7629009,36.3685618 L97.2789803,50.3411157 L93.1967647,50.3411157 L91.7079566,47.346997 Z M90.4832919,44.8918196 L87.8178452,39.5423276 L85.1523986,44.8918196 L90.4832919,44.8918196 Z M115.240729,50.3411157 L115.216716,41.9575833 L110.270031,48.8640171 L108.51708,48.8640171 L103.594408,42.1372304 L103.594408,50.3411157 L99.944427,50.3411157 L99.944427,36.3685618 L103.162173,36.3685618 L109.453588,45.051506 L115.648951,36.3685618 L118.842684,36.3685618 L118.89071,50.3411157 L115.240729,50.3411157 Z M131.065318,36.3685618 C132.554133,36.3685618 133.846822,36.5748212 134.943423,36.9873463 C136.040023,37.3998714 136.884473,37.9853821 137.476798,38.7438959 C138.069122,39.5024098 138.36528,40.4006364 138.36528,41.4386027 C138.36528,42.4632618 138.069122,43.3581617 137.476798,44.1233292 C136.884473,44.8884967 136.040023,45.4740074 134.943423,45.8798788 C133.846822,46.2857503 132.554133,46.4886829 131.065318,46.4886829 L127.67948,46.4886829 L127.67948,50.3411157 L123.789369,50.3411157 L123.789369,36.3685618 L131.065318,36.3685618 Z M130.849201,43.8538585 C132.017841,43.8538585 132.906314,43.6442723 133.514647,43.2250936 C134.122981,42.8059149 134.427143,42.2104239 134.427143,41.4386027 C134.427143,40.6534744 134.122981,40.0513298 133.514647,39.6321511 C132.906314,39.2129724 132.017841,39.0033862 130.849201,39.0033862 L127.67948,39.0033862 L127.67948,43.8538585 L130.849201,43.8538585 Z M155.054338,47.7462128 L155.054338,50.3411157 L142.039274,50.3411157 L142.039274,36.3685618 L154.742169,36.3685618 L154.742169,38.9634646 L145.905372,38.9634646 L145.905372,41.9975049 L153.709608,41.9975049 L153.709608,44.5125646 L145.905372,44.5125646 L145.905372,47.7462128 L155.054338,47.7462128 Z M169.774327,50.3411157 L166.532568,46.4487614 L162.954626,46.4487614 L162.954626,50.3411157 L159.064515,50.3411157 L159.064515,36.3685618 L166.340464,36.3685618 C167.829279,36.3685618 169.121968,36.5748212 170.218569,36.9873463 C171.315169,37.3998714 172.159619,37.9853821 172.751944,38.7438959 C173.344268,39.5024098 173.640426,40.4006364 173.640426,41.4386027 C173.640426,42.4765691 173.340266,43.3714689 172.739937,44.1233292 C172.139608,44.8751894 171.287154,45.4507198 170.182549,45.8499376 L173.952595,50.3411157 L169.774327,50.3411157 Z M169.702288,41.4386027 C169.702288,40.6534744 169.398126,40.0513298 168.789793,39.6321511 C168.18146,39.2129724 167.292986,39.0033862 166.124346,39.0033862 L162.954626,39.0033862 L162.954626,43.8738193 L166.124346,43.8738193 C167.292986,43.8738193 168.18146,43.6609063 168.789793,43.235074 C169.398126,42.8092416 169.702288,42.2104239 169.702288,41.4386027 Z M193.787361,36.3685618 L186.511411,50.3411157 L182.669326,50.3411157 L175.41739,36.3685618 L179.619671,36.3685618 L184.734447,46.3489574 L189.921262,36.3685618 L193.787361,36.3685618 Z M206.61032,47.346997 L198.806084,47.346997 L197.317276,50.3411157 L193.331113,50.3411157 L200.823179,36.3685618 L204.665265,36.3685618 L212.181344,50.3411157 L208.099128,50.3411157 L206.61032,47.346997 Z M205.385656,44.8918196 L202.720209,39.5423276 L200.054762,44.8918196 L205.385656,44.8918196 Z M230.263158,36.3685618 L230.263158,50.3411157 L227.069424,50.3411157 L218.688876,41.8577794 L218.688876,50.3411157 L214.846791,50.3411157 L214.846791,36.3685618 L218.064537,36.3685618 L226.421073,44.8518981 L226.421073,36.3685618 L230.263158,36.3685618 Z" id="CAMPERVAN" fill-rule="nonzero"></path>
            </g>
        </g>
    </g>
</svg>